/* XPM */
static char *_0004782add84185b95e19d88b73d997[] = {
/* columns rows colors chars-per-pixel */
"64 64 3 1 ",
"  c gray4",
". c #222222",
"X c #393939",
/* pixels */
"..XXXXXXXXXXXXXXXXXXXXXXXXXXXXXXXXXXXXXXXXXXXXXXXXXXXXXXXXXXXXXX",
"..XXXXXXXXXXXXXXXXXXXXXXXXXXXXXXXXXXXXXXXXXXXXXXXXXXXXXXXXXXXXXX",
"  ............................................................XX",
"  ............................................................XX",
"  ............................................................XX",
"  ............................................................XX",
"  ............................................................XX",
"  ............................................................XX",
"  ............................................................XX",
"  ............................................................XX",
"  ............................................................XX",
"  ............................................................XX",
"  ............................................................XX",
"  ............................................................XX",
"  ............................................................XX",
"  ............................................................XX",
"  ............................................................XX",
"  ............................................................XX",
"  ............................................................XX",
"  ............................................................XX",
"  ............................................................XX",
"  ............................................................XX",
"  ............................................................XX",
"  ............................................................XX",
"  ............................................................XX",
"  ............................................................XX",
"  ............................................................XX",
"  ............................................................XX",
"  ............................................................XX",
"  ............................................................XX",
"  ............................................................XX",
"  ............................................................XX",
"  ............................................................XX",
"  ............................................................XX",
"  ............................................................XX",
"  ............................................................XX",
"  ............................................................XX",
"  ............................................................XX",
"  ............................................................XX",
"  ............................................................XX",
"  ............................................................XX",
"  ............................................................XX",
"  ............................................................XX",
"  ............................................................XX",
"  ............................................................XX",
"  ............................................................XX",
"  ............................................................XX",
"  ............................................................XX",
"  ............................................................XX",
"  ............................................................XX",
"  ............................................................XX",
"  ............................................................XX",
"  ............................................................XX",
"  ............................................................XX",
"  ............................................................XX",
"  ............................................................XX",
"  ............................................................XX",
"  ............................................................XX",
"  ............................................................XX",
"  ............................................................XX",
"  ............................................................XX",
"  ............................................................XX",
"                                                              ..",
"                                                              .."
};
