/* XPM */
static char *_23f1b21536748b48d0066ffcd49f132[] = {
/* columns rows colors chars-per-pixel */
"64 64 9 1 ",
"  c #F4B408",
". c #F8C600",
"X c #FFD11D",
"o c #FFDC39",
"O c #FFF265",
"+ c #A2A2A2",
"@ c #B7B7B7",
"# c gray86",
"$ c #E6E6E6",
/* pixels */
"++++++++++++++++++++++++++++++++++++++++++++++++++++++++++++++++",
"++++++++++++++++++++++++++++++++++++++++++++++++++++++++++++++++",
"++@@@@######################################################@@++",
"++@@@@######################################################@@++",
"++@@@@######################################################@@++",
"++@@@@######################################################@@++",
"++@@@@####@@@@@@@@@@@@@@@@@@@@######@@@@@@@@@@@@@@@@@@@@####@@++",
"++@@@@####@@@@@@@@@@@@@@@@@@@@######@@@@@@@@@@@@@@@@@@@@####@@++",
"++@@@@##$$##@@@@@@@@@@@@@@@@@@####$$##@@@@@@@@@@@@@@@@@@####@@++",
"++@@@@##$$##@@@@@@@@@@@@@@@@@@####$$##@@@@@@@@@@@@@@@@@@####@@++",
"++++++##$$$$##############@@@@####$$$$##############@@@@####@@++",
"++++++##$$$$##############@@@@####$$$$##############@@@@####@@++",
"@@@@++##$$$$##############@@@@####$$$$##############@@@@####@@++",
"@@@@++##$$$$##############@@@@####$$$$##############@@@@####@@++",
"++++++##$$$$##############@@@@####$$$$##############@@@@####@@++",
"++++++##$$$$##############@@@@####$$$$##############@@@@####@@++",
"++@@@@##$$$$##############@@@@####$$$$##############@@@@####@@++",
"++@@@@##$$$$##############@@@@####$$$$##############@@@@####@@++",
"++@@@@##$$$$##############@@@@####$$$$##############@@@@####@@++",
"++@@@@##$$$$##############@@@@####$$$$##############@@@@####@@++",
"++@@@@##$$$$##############@@@@####$$$$##############@@@@####@@++",
"++@@@@##$$$$##############@@@@####$$$$##############@@@@####@@++",
"++@@@@##$$$$##############@@@@####$$$$##############@@@@####@@++",
"++@@@@##$$$$##############@@@@####$$$$##############@@@@####@@++",
"++@@@@##$$$$##############@@@@####$$$$##############@@@@####@@++",
"++@@@@##$$$$##############@@@@####$$$$##############@@@@####@@++",
"++@@@@##$$$$$$$$$$$$$$$$$$##@@####$$$$$$$$$$$$$$$$$$##@@####@@++",
"++@@@@##$$$$$$$$$$$$$$$$$$##@@####$$$$$$$$$$$$$$$$$$##@@####@@++",
"++@@@@##$$$$$$$$$$$$$$$$$$$$######$$$$$$$$$$$$$$$$$$$$######@@++",
"++@@@@##$$$$$$$$$$$$$$$$$$$$######$$$$$$$$$$$$$$$$$$$$######@@++",
"++@@@@############################################      ####@@++",
"++@@@@############################################      ####@@++",
"++@@@@##########################################  XXooOO  ##@@++",
"++@@@@##########################################  XXooOO  ##@@++",
"++@@@@####@@@@@@@@@@@@@@@@@@@@######@@@@@@@@@@@@  XXXXoo  ##@@++",
"++@@@@####@@@@@@@@@@@@@@@@@@@@######@@@@@@@@@@@@  XXXXoo  ##@@++",
"++@@@@##$$##@@@@@@@@@@@@@@@@@@####$$##@@@@@@@@@@  ..XXXX  ##@@++",
"++@@@@##$$##@@@@@@@@@@@@@@@@@@####$$##@@@@@@@@@@  ..XXXX  ##@@++",
"++@@@@##$$$$##############@@@@####$$$$########@@@@      ####@@++",
"++@@@@##$$$$##############@@@@####$$$$########@@@@      ####@@++",
"++@@@@##$$$$##############@@@@####$$$$##########@@@@@@@@####@@++",
"++@@@@##$$$$##############@@@@####$$$$##########@@@@@@@@####@@++",
"++@@@@##$$$$##############@@@@####$$$$##############@@@@####@@++",
"++@@@@##$$$$##############@@@@####$$$$##############@@@@####@@++",
"++@@@@##$$$$##############@@@@####$$$$##############@@@@####@@++",
"++@@@@##$$$$##############@@@@####$$$$##############@@@@####@@++",
"++@@@@##$$$$##############@@@@####$$$$##############@@@@####@@++",
"++@@@@##$$$$##############@@@@####$$$$##############@@@@####@@++",
"++@@@@##$$$$##############@@@@####$$$$##############@@@@####@@++",
"++@@@@##$$$$##############@@@@####$$$$##############@@@@####@@++",
"++++++##$$$$##############@@@@####$$$$##############@@@@####@@++",
"++++++##$$$$##############@@@@####$$$$##############@@@@####@@++",
"@@@@++##$$$$##############@@@@####$$$$##############@@@@####@@++",
"@@@@++##$$$$##############@@@@####$$$$##############@@@@####@@++",
"++++++##$$$$$$$$$$$$$$$$$$##@@####$$$$$$$$$$$$$$$$$$##@@####@@++",
"++++++##$$$$$$$$$$$$$$$$$$##@@####$$$$$$$$$$$$$$$$$$##@@####@@++",
"++@@@@##$$$$$$$$$$$$$$$$$$$$######$$$$$$$$$$$$$$$$$$$$######@@++",
"++@@@@##$$$$$$$$$$$$$$$$$$$$######$$$$$$$$$$$$$$$$$$$$######@@++",
"++@@@@######################################################@@++",
"++@@@@######################################################@@++",
"++@@@@######################################################@@++",
"++@@@@######################################################@@++",
"++@@@@@@@@@@@@@@@@@@@@@@@@@@@@@@@@@@@@@@@@@@@@@@@@@@@@@@@@@@@@++",
"++@@@@@@@@@@@@@@@@@@@@@@@@@@@@@@@@@@@@@@@@@@@@@@@@@@@@@@@@@@@@++"
};
