/* XPM */
static char *d2d28ba6201b458483a2fc28d1814889[] = {
/* columns rows colors chars-per-pixel */
"64 64 6 1 ",
"  c None",
". c #218D9C",
"X c #27B5CA",
"o c #91DFE9",
"O c #D8F4F8",
"+ c #FBFEFF",
/* pixels */
"            XXXXXXXXXXXXXXXXXXXXXXXXXXXXXXXXXXXXXXXX            ",
"            XXXXXXXXXXXXXXXXXXXXXXXXXXXXXXXXXXXXXXXX            ",
"          XXooooOOOOOOOOOOOOOOOOOOOOOOOOOOOOOOOOOOOOXX          ",
"          XXooooOOOOOOOOOOOOOOOOOOOOOOOOOOOOOOOOOOOOXX          ",
"        XXooooOOOO++++++++++++++++++++++++++++++++OOOOXX        ",
"        XXooooOOOO++++++++++++++++++++++++++++++++OOOOXX        ",
"        XXooooOOOOOOOOOOOOOOOOOOOOOOOOOOOOOOOOOOOO++OOXX        ",
"        XXooooOOOOOOOOOOOOOOOOOOOOOOOOOOOOOOOOOOOO++OOXX        ",
"      XXooooOOOOOOooooooooooooooooooooooooooooooOOOO++OOXX      ",
"      XXooooOOOOOOooooooooooooooooooooooooooooooOOOO++OOXX      ",
"      XXooooOOOOooXXXXXXXXXXXXXXXXXXXXXXXXXXXXooooOO++OOXX      ",
"      XXooooOOOOooXXXXXXXXXXXXXXXXXXXXXXXXXXXXooooOO++OOXX      ",
"      XXooooOOOOXX                            XXooOO++OOXX      ",
"      XXooooOOOOXX                            XXooOO++OOXX      ",
"      XXooooOOOOXX                            XXooOOOOOOXX      ",
"      XXooooOOOOXX                            XXooOOOOOOXX      ",
"    XXXXooooOOOOXXXXXXXXXXXXXXXXXXXXXXXXXXXXXXXXooOOOOOOXXXX    ",
"    XXXXooooOOOOXXXXXXXXXXXXXXXXXXXXXXXXXXXXXXXXooOOOOOOXXXX    ",
"  XXooooooooooooooooooooooooooooooooooooooooooooooooooooooooXX  ",
"  XXooooooooooooooooooooooooooooooooooooooooooooooooooooooooXX  ",
"  XXooooOOOOOOOOOOOOOOOOOOOOOOOOOOOOOOOOOOOOOOOOOOOOOOOOOOooXX  ",
"  XXooooOOOOOOOOOOOOOOOOOOOOOOOOOOOOOOOOOOOOOOOOOOOOOOOOOOooXX  ",
"XXooooOOOOOO++++++++++++OOooooooooooooOO++++++++++++++++OOOOooXX",
"XXooooOOOOOO++++++++++++OOooooooooooooOO++++++++++++++++OOOOooXX",
"XXooooOOOO++++++++++++OOoo............ooOO++++++++++++++++OOooXX",
"XXooooOOOO++++++++++++OOoo............ooOO++++++++++++++++OOooXX",
"XXooooOOOOOOOOOOOOOOOOoo..XXXXXXXXXX....ooOOOOOOOO++++++++OOooXX",
"XXooooOOOOOOOOOOOOOOOOoo..XXXXXXXXXX....ooOOOOOOOO++++++++OOooXX",
"XXooooOOOOOOOOOOOOOO++ooXXXX..ooooXXXX..ooOOOOOO++++++++++OOooXX",
"XXooooOOOOOOOOOOOOOO++ooXXXX..ooooXXXX..ooOOOOOO++++++++++OOooXX",
"XXooooOOOOOOOOOOOO++++ooXX..ooOOOOooXX..ooOOOO++++++OO++++OOooXX",
"XXooooOOOOOOOOOOOO++++ooXX..ooOOOOooXX..ooOOOO++++++OO++++OOooXX",
"XXooooOOOOOOOOOO++++OOooXX..ooOOOOooXX..ooOO++++++OOOO++++OOooXX",
"XXooooOOOOOOOOOO++++OOooXX..ooOOOOooXX..ooOO++++++OOOO++++OOooXX",
"XXooooOOOOOOOO++++OOOOooXX....oooo..XX..oo++++++OOOOOO++++OOooXX",
"XXooooOOOOOOOO++++OOOOooXX....oooo..XX..oo++++++OOOOOO++++OOooXX",
"XXooooOOOOOO++++OOOOOOooXXXX......XXXX..oo++++OOOOOOOO++++OOooXX",
"XXooooOOOOOO++++OOOOOOooXXXX......XXXX..oo++++OOOOOOOO++++OOooXX",
"XXooooOOOO++++OOOOOOOOOOooXXXXXXXXXX..oo++++OOOOOOOOOO++++OOooXX",
"XXooooOOOO++++OOOOOOOOOOooXXXXXXXXXX..oo++++OOOOOOOOOO++++OOooXX",
"XXooooOO++++OOOOOOOOOOOO++ooooXX..oooo++++OOOOOOOOOO++++++OOooXX",
"XXooooOO++++OOOOOOOOOOOO++ooooXX..oooo++++OOOOOOOOOO++++++OOooXX",
"XXooooOO++OOOOOOOOOOOO++OOOOooXX..oo++++OOOOOOOOOO++++++++OOooXX",
"XXooooOO++OOOOOOOOOOOO++OOOOooXX..oo++++OOOOOOOOOO++++++++OOooXX",
"XXooooOOOOOOOOOOOOOO++OOOOOOooXX....ooOOOOOOOOOO++++++++++OOooXX",
"XXooooOOOOOOOOOOOOOO++OOOOOOooXX....ooOOOOOOOOOO++++++++++OOooXX",
"XXooooOOOOOOOOOOOO++OOOOOO++ooXX..ooooooOOOOOO++++++OO++++OOooXX",
"XXooooOOOOOOOOOOOO++OOOOOO++ooXX..ooooooOOOOOO++++++OO++++OOooXX",
"XXooooOOOOOOOOOO++OOOOOO++++ooXX......ooOOOO++++++OOOO++++OOooXX",
"XXooooOOOOOOOOOO++OOOOOO++++ooXX......ooOOOO++++++OOOO++++OOooXX",
"XXooooOOOOOOOO++OOOOOO++++++ooXXXXXX..ooOO++++++OOOOOOOO++OOooXX",
"XXooooOOOOOOOO++OOOOOO++++++ooXXXXXX..ooOO++++++OOOOOOOO++OOooXX",
"XXooooOOOOOO++OOOOOO++++++OOooXXXXXX..oo++++++OOOOOOOOOOOOOOooXX",
"XXooooOOOOOO++OOOOOO++++++OOooXXXXXX..oo++++++OOOOOOOOOOOOOOooXX",
"XXooooOOOO++OOOOOO++++++OOOOoooooooooooo++++OOOOOOOOOOOOOOOOooXX",
"XXooooOOOO++OOOOOO++++++OOOOoooooooooooo++++OOOOOOOOOOOOOOOOooXX",
"  XXooooOOOOOOOOOOOOOOOOOOOOOOOOOOOOOOOOOOOOOOOOOOOOOOOOOOooXX  ",
"  XXooooOOOOOOOOOOOOOOOOOOOOOOOOOOOOOOOOOOOOOOOOOOOOOOOOOOooXX  ",
"  XXooooooooooooooooooooooooooooooooooooooooooooooooooooooooXX  ",
"  XXooooooooooooooooooooooooooooooooooooooooooooooooooooooooXX  ",
"    XXooooooooooooooooooooooooooooooooooooooooooooooooooooXX    ",
"    XXooooooooooooooooooooooooooooooooooooooooooooooooooooXX    ",
"      XXXXXXXXXXXXXXXXXXXXXXXXXXXXXXXXXXXXXXXXXXXXXXXXXXXX      ",
"      XXXXXXXXXXXXXXXXXXXXXXXXXXXXXXXXXXXXXXXXXXXXXXXXXXXX      "
};
