/* XPM */
static char *_82722d68d6746c781bc40a0a3d26549[] = {
/* columns rows colors chars-per-pixel */
"64 64 14 1 ",
"  c None",
". c black",
"X c #818181",
"o c gray56",
"O c #909090",
"+ c gray61",
"@ c #A2A2A2",
"# c #ACACAC",
"$ c #B4B4B4",
"% c gray78",
"& c #DADADA",
"* c #E6E6E6",
"= c gray92",
"- c white",
/* pixels */
"          oo@@$$$$$$$$$$$$$$$$$$$$$$$$$$$$$$$$$$@@              ",
"          oo@@$$$$$$$$$$$$$$$$$$$$$$$$$$$$$$$$$$@@              ",
"        oo@@$$$$%%$$$$%%%%$$$$%%%%%%%%%%%%%%%%%%%%@@            ",
"        oo@@$$$$%%$$$$%%%%$$$$%%%%%%%%%%%%%%%%%%%%@@            ",
"        oo@@$$$$$$$$$$$$**------**$$$$$$**------**@@            ",
"        oo@@$$$$$$$$$$$$**------**$$$$$$**------**@@            ",
"        oo@@$$$$$$$$$$**----------**$$**----------**            ",
"        oo@@$$$$$$$$$$**----------**$$**----------**            ",
"        oo@@@@@@$$$$$$**----------**$$**----------**            ",
"        oo@@@@@@$$$$$$**----------**$$**----------**            ",
"        oo@@$$$$$$$$$$**----....--**$$**----....--**            ",
"        oo@@$$$$$$$$$$**----....--**$$**----....--**            ",
"        oo@@$$@@$$$$$$**----....--**$$**----....--**            ",
"        oo@@$$@@$$$$$$**----....--**$$**----....--**            ",
"        oo@@$$$$$$$$$$**----------**%%**----------**            ",
"        oo@@$$$$$$$$$$**----------**%%**----------**            ",
"        oo@@@@@@$$$$$$$$**------**$$$$%%**------**@@            ",
"        oo@@@@@@$$$$$$$$**------**$$$$%%**------**@@            ",
"        oo@@$$$$$$$$$$$$$$$$$$$$$$$$$$$$%%$$$$$$$$@@            ",
"        oo@@$$$$$$$$$$$$$$$$$$$$$$$$$$$$%%$$$$$$$$@@            ",
"        oo@@$$$$$$$$$$--$$$$$$$$@@@@@@@@@@$$$$--$$@@            ",
"        oo@@$$$$$$$$$$--$$$$$$$$@@@@@@@@@@$$$$--$$@@            ",
"        oo@@$$$$$$$$$$--**----**----**----**----$$@@            ",
"        oo@@$$$$$$$$$$--**----**----**----**----$$@@            ",
"        oo@@$$$$$$$$$$--**----**----**----**----$$@@            ",
"        oo@@$$$$$$$$$$--**----**----**----**----$$@@            ",
"        oo@@$$$$$$$$$$$$**----**----**----**----$$@@            ",
"        oo@@$$$$$$$$$$$$**----**----**----**----$$@@            ",
"        oo@@@@$$$$$$$$$$$$----**----**----**--$$$$@@            ",
"        oo@@@@$$$$$$$$$$$$----**----**----**--$$$$@@            ",
"          oo@@@@@@$$$$$$$$$$$$$$$$$$$$$$$$$$$$$$@@              ",
"          oo@@@@@@$$$$$$$$$$$$$$$$$$$$$$$$$$$$$$@@              ",
"                @@@@@@&&@@@@@@@@@@@@@@&&@@@@                    ",
"                @@@@@@&&@@@@@@@@@@@@@@&&@@@@                    ",
"              @@@@$$$$==$$$$$$$$$$$$$$==$$$$@@                  ",
"              @@@@$$$$==$$$$$$$$$$$$$$==$$$$@@                  ",
"              @@$$$$$$==$$$$$$$$$$$$$$==$$$$@@$$                ",
"              @@$$$$$$==$$$$$$$$$$$$$$==$$$$@@$$                ",
"              @@$$$$$$======================@@$$                ",
"              @@$$$$$$======================@@$$                ",
"              @@$$%%$$======================&&$$                ",
"              @@$$%%$$======================&&$$                ",
"              @@$$%%$$======================&&$$                ",
"              @@$$%%$$======================&&$$                ",
"              @@$$%%$$======================&&$$                ",
"              @@$$%%$$======================&&$$                ",
"            @@$$$$$$$$$$&&&&&&&&&&&&&&&&&&&&&&$$$$              ",
"            @@$$$$$$$$$$&&&&&&&&&&&&&&&&&&&&&&$$$$              ",
"            @@$$$$$$@@$$======================@@$$              ",
"            @@$$$$$$@@$$======================@@$$              ",
"            @@$$@@%%@@$$====&&&&&&&&==========@@$$              ",
"            @@$$@@%%@@$$====&&&&&&&&==========@@$$              ",
"              @@@@@@@@======        &&========@@                ",
"              @@@@@@@@======        &&========@@                ",
"              @@@@@@@@@@@@            @@@@@@@@                  ",
"              @@@@@@@@@@@@            @@@@@@@@                  ",
"              @@$$$$$$$$$$            @@$$$$$$                  ",
"              @@$$$$$$$$$$            @@$$$$$$                  ",
"              @@$$@@$$$$$$$$$$$$      @@$$@@$$$$$$$$            ",
"              @@$$@@$$$$$$$$$$$$      @@$$@@$$$$$$$$            ",
"  XXXXOOOOOO++@@@@@@@@@@$$$$$$$$++++++@@@@@@@@@@$$$$######++XX  ",
"  XXXXOOOOOO++@@@@@@@@@@$$$$$$$$++++++@@@@@@@@@@$$$$######++XX  ",
"XXXXOOOOOO++OOOO++OO++++++++++++++++++++++++##++####++######++XX",
"XXXXOOOOOO++OOOO++OO++++++++++++++++++++++++##++####++######++XX"
};
