/* XPM */
static char *c81eeb983c354b69bf9070f429abc6b7[] = {
/* columns rows colors chars-per-pixel */
"64 64 5 1 ",
"  c None",
". c black",
"X c #060606",
"o c gray15",
"O c #393939",
/* pixels */
"  ............................................................  ",
"  ............................................................  ",
"..ooOOOOOOOOOOOOOOOOOOOOOOOOOOOOOOOOOOOOOOOOOOOOOOOOOOOOOOOOOO..",
"..ooOOOOOOOOOOOOOOOOOOOOOOOOOOOOOOOOOOOOOOOOOOOOOOOOOOOOOOOOOO..",
"..XXooOOOOOOOOOOOOOOOOOOOOOOOOOOOOOOOOOOOOOOOOOOOOOOOOOOOOOOOO..",
"..XXooOOOOOOOOOOOOOOOOOOOOOOOOOOOOOOOOOOOOOOOOOOOOOOOOOOOOOOOO..",
"..XXXXooooooooooooooooooooooooooooooooooooooooooooooooooooOOOO..",
"..XXXXooooooooooooooooooooooooooooooooooooooooooooooooooooOOOO..",
"..XXXXooooOOOOOOOOOOOOOOOOOOOOOOOOOOOOOOOOOOOOOOOOOOOOOOooOOOO..",
"..XXXXooooOOOOOOOOOOOOOOOOOOOOOOOOOOOOOOOOOOOOOOOOOOOOOOooOOOO..",
"..XXXXooXXooooooooooooooooooooooooooooooooooooooooooooOOooOOOO..",
"..XXXXooXXooooooooooooooooooooooooooooooooooooooooooooOOooOOOO..",
"..XXXXooXXooooooooooooooooooooooooooooooooooooooooooooOOooOOOO..",
"..XXXXooXXooooooooooooooooooooooooooooooooooooooooooooOOooOOOO..",
"..XXXXooXXooooooooooooooooooooooooooooooooooooooooooooOOooOOOO..",
"..XXXXooXXooooooooooooooooooooooooooooooooooooooooooooOOooOOOO..",
"..XXXXooXXooooooooooooooooooooooooooooooooooooooooooooOOooOOOO..",
"..XXXXooXXooooooooooooooooooooooooooooooooooooooooooooOOooOOOO..",
"..XXXXooXXooooooooooooooooooooooooooooooooooooooooooooOOooOOOO..",
"..XXXXooXXooooooooooooooooooooooooooooooooooooooooooooOOooOOOO..",
"..XXXXooXXooooooooooooooooooooooooooooooooooooooooooooOOooOOOO..",
"..XXXXooXXooooooooooooooooooooooooooooooooooooooooooooOOooOOOO..",
"..XXXXooXXooooooooooooooooooooooooooooooooooooooooooooOOooOOOO..",
"..XXXXooXXooooooooooooooooooooooooooooooooooooooooooooOOooOOOO..",
"..XXXXooXXooooooooooooooooooooooooooooooooooooooooooooOOooOOOO..",
"..XXXXooXXooooooooooooooooooooooooooooooooooooooooooooOOooOOOO..",
"..XXXXooXXooooooooooooooooooooooooooooooooooooooooooooOOooOOOO..",
"..XXXXooXXooooooooooooooooooooooooooooooooooooooooooooOOooOOOO..",
"..XXXXooXXooooooooooooooooooooooooooooooooooooooooooooOOooOOOO..",
"..XXXXooXXooooooooooooooooooooooooooooooooooooooooooooOOooOOOO..",
"..XXXXooXXooooooooooooooooooooooooooooooooooooooooooooOOooOOOO..",
"..XXXXooXXooooooooooooooooooooooooooooooooooooooooooooOOooOOOO..",
"..XXXXooXXooooooooooooooooooooooooooooooooooooooooooooOOooOOOO..",
"..XXXXooXXooooooooooooooooooooooooooooooooooooooooooooOOooOOOO..",
"..XXXXooXXooooooooooooooooooooooooooooooooooooooooooooOOooOOOO..",
"..XXXXooXXooooooooooooooooooooooooooooooooooooooooooooOOooOOOO..",
"..XXXXooXXooooooooooooooooooooooooooooooooooooooooooooOOooOOOO..",
"..XXXXooXXooooooooooooooooooooooooooooooooooooooooooooOOooOOOO..",
"..XXXXooXXooooooooooooooooooooooooooooooooooooooooooooOOooOOOO..",
"..XXXXooXXooooooooooooooooooooooooooooooooooooooooooooOOooOOOO..",
"..XXXXooXXooooooooooooooooooooooooooooooooooooooooooooOOooOOOO..",
"..XXXXooXXooooooooooooooooooooooooooooooooooooooooooooOOooOOOO..",
"..XXXXooXXooooooooooooooooooooooooooooooooooooooooooooOOooOOOO..",
"..XXXXooXXooooooooooooooooooooooooooooooooooooooooooooOOooOOOO..",
"..XXXXooXXooooooooooooooooooooooooooooooooooooooooooooOOooOOOO..",
"..XXXXooXXooooooooooooooooooooooooooooooooooooooooooooOOooOOOO..",
"..XXXXooXXooooooooooooooooooooooooooooooooooooooooooooOOooOOOO..",
"..XXXXooXXooooooooooooooooooooooooooooooooooooooooooooOOooOOOO..",
"..XXXXooXXooooooooooooooooooooooooooooooooooooooooooooOOooOOOO..",
"..XXXXooXXooooooooooooooooooooooooooooooooooooooooooooOOooOOOO..",
"..XXXXooXXooooooooooooooooooooooooooooooooooooooooooooOOooOOOO..",
"..XXXXooXXooooooooooooooooooooooooooooooooooooooooooooOOooOOOO..",
"..XXXXooXXooooooooooooooooooooooooooooooooooooooooooooOOooOOOO..",
"..XXXXooXXooooooooooooooooooooooooooooooooooooooooooooOOooOOOO..",
"..XXXXooXXXXXXXXXXXXXXXXXXXXXXXXXXXXXXXXXXXXXXXXXXXXXXooooOOOO..",
"..XXXXooXXXXXXXXXXXXXXXXXXXXXXXXXXXXXXXXXXXXXXXXXXXXXXooooOOOO..",
"..XXXXooooooooooooooooooooooooooooooooooooooooooooooooooooOOOO..",
"..XXXXooooooooooooooooooooooooooooooooooooooooooooooooooooOOOO..",
"..XXXXXXXXXXXXXXXXXXXXXXXXXXXXXXXXXXXXXXXXXXXXXXXXXXXXXXXXooOO..",
"..XXXXXXXXXXXXXXXXXXXXXXXXXXXXXXXXXXXXXXXXXXXXXXXXXXXXXXXXooOO..",
"..XXXXXXXXXXXXXXXXXXXXXXXXXXXXXXXXXXXXXXXXXXXXXXXXXXXXXXXXXXoo..",
"..XXXXXXXXXXXXXXXXXXXXXXXXXXXXXXXXXXXXXXXXXXXXXXXXXXXXXXXXXXoo..",
"  ............................................................  ",
"  ............................................................  "
};
